<svg width="133" height="42" viewBox="0 0 133 42" fill="none" xmlns="http://www.w3.org/2000/svg">
<path d="M31.4251 23.6074L30.2249 31.157L37.3651 33.8956L37.364 27.0355L31.4251 23.6074Z" fill="#A299FF"/>
<path d="M0.31665 30.4654V12.5039L6.2584 14.388V27.0348L15.8719 32.585L16.5901 35.3232L15.8719 39.4457L0.31665 30.4654Z" fill="#7366FF"/>
<path d="M15.8733 10.3852L6.25841 15.9343L0.31665 12.5041L15.8698 3.52441L31.425 12.5041L28.1431 15.1189L25.4868 15.9353L15.8733 10.3852Z" fill="#7366FF"/>
<path d="M37.3668 33.8934L31.425 37.3261L25.4868 33.8934V27.0352L37.3668 33.8934Z" fill="#5219FF"/>
<path d="M15.8734 14.6421L15.8699 21.5011L21.8134 24.9302L21.8123 18.0702L15.8734 14.6421Z" fill="#A299FF"/>
<path d="M15.8696 21.501L9.92993 24.9301L15.8706 28.361L21.8131 24.9301L15.8696 21.501Z" fill="#5219FF"/>
<path d="M15.8731 14.6421L9.93064 18.073L9.92993 24.9302L15.8696 21.5011L15.8731 14.6421Z" fill="#7366FF"/>
<path d="M31.425 12.5039V23.6078L25.4868 27.0352V15.9352L31.425 12.5039Z" fill="url(#paint0_linear)"/>
<path d="M31.4267 23.6045L15.8718 32.5852V39.446L31.4249 30.4645L31.4267 23.6045Z" fill="url(#paint1_linear)"/>
<path d="M68.3583 29.325C67.3422 28.3201 66.6488 27.0349 66.367 25.6339C66.0851 24.2328 66.2275 22.7795 66.7759 21.4598C67.3243 20.1401 68.2539 19.0139 69.4457 18.2253C70.6376 17.4367 72.0375 17.0214 73.4666 17.0326C74.4141 17.0225 75.3542 17.2013 76.2319 17.5584C77.1096 17.9155 77.9074 18.4439 78.5787 19.1127C79.2501 19.7815 79.7814 20.5773 80.1419 21.4536C80.5023 22.33 80.6846 23.2694 80.6781 24.217C80.6664 25.639 80.2364 27.0262 79.4417 28.2056C78.647 29.385 77.5227 30.3043 76.209 30.849C74.8953 31.3937 73.4504 31.5396 72.0543 31.2686C70.6582 30.9976 69.3728 30.3217 68.3583 29.325V29.325ZM73.4666 28.5331C74.0292 28.5461 74.5884 28.4437 75.1099 28.2323C75.6314 28.0209 76.104 27.7049 76.4987 27.3038C77.2881 26.4699 77.728 25.3652 77.728 24.2169C77.728 23.0687 77.2881 21.964 76.4987 21.1301C75.6862 20.3417 74.5986 19.9008 73.4665 19.9008C72.3344 19.9008 71.2468 20.3417 70.4343 21.1301C69.6449 21.964 69.205 23.0687 69.205 24.2169C69.205 25.3652 69.6449 26.4699 70.4343 27.3038C70.829 27.7049 71.3017 28.0209 71.8232 28.2323C72.3447 28.4437 72.904 28.5461 73.4666 28.5331Z" fill="#3D406D"/>
<path d="M91.5744 17.3877H94.7978L89.471 31.0461H86.0565L80.7297 17.3877H83.9533L87.7776 27.7679L91.5744 17.3877Z" fill="#3D406D"/>
<path d="M97.9502 25.474C98.3872 27.55 100.054 28.6973 102.321 28.6973C103.878 28.6973 105.053 28.1235 105.844 27.0036L108.276 28.4241C106.937 30.4182 104.943 31.4017 102.293 31.4017C100.081 31.4017 98.2779 30.7188 96.9122 29.3802C96.2364 28.705 95.706 27.8986 95.3537 27.0107C95.0013 26.1228 94.8344 25.1722 94.8633 24.2173C94.8385 23.2736 95.0048 22.3346 95.3522 21.4567C95.6996 20.5788 96.2209 19.7803 96.8848 19.109C98.2234 17.7159 99.9716 17.033 102.075 17.033C102.998 17.0084 103.915 17.1836 104.764 17.5467C105.612 17.9098 106.372 18.4521 106.992 19.1364C108.275 20.5241 108.97 22.3552 108.931 24.2447C108.927 24.6567 108.89 25.0677 108.822 25.474L97.9502 25.474ZM105.954 23.07C105.544 20.8573 103.987 19.71 102.048 19.71C99.8623 19.71 98.3325 20.994 97.9228 23.07H105.954Z" fill="#3D406D"/>
<path d="M113.823 19.6823C114.56 17.9886 115.981 17.3877 118.029 17.3877V20.2938C116.977 20.247 115.94 20.5507 115.079 21.1574C114.232 21.7583 113.823 22.769 113.823 24.1623V31.0461H110.872V17.3877H113.823V19.6823Z" fill="#3D406D"/>
<path d="M129.425 17.3877H132.566L127.322 31.4832C126.01 35.0068 123.798 36.7006 120.656 36.5093V33.7504C122.514 33.8597 123.552 32.9582 124.289 31.0732L124.426 30.8003L118.635 17.3877H121.858L125.928 27.3037L129.425 17.3877Z" fill="#3D406D"/>
<path d="M65.2849 28.6963L62.6183 27.1568C63.7921 25.5009 64.41 23.5152 64.3827 21.4856C64.3802 19.5246 63.797 17.6082 62.7067 15.9782C61.6163 14.3482 60.0677 13.0775 58.2561 12.3266C56.4445 11.5756 54.4511 11.378 52.5274 11.7586C50.6036 12.1392 48.8356 13.081 47.4464 14.4652C46.5061 15.3727 45.7635 16.4648 45.2652 17.6729C44.7669 18.881 44.5237 20.1791 44.5509 21.4856C44.5408 22.7906 44.7904 24.0846 45.2851 25.2922C45.7799 26.4999 46.5099 27.597 47.4327 28.5198C48.3555 29.4426 49.4527 30.1727 50.6603 30.6674C51.8679 31.1622 53.1619 31.4118 54.4669 31.4017C56.2635 31.4022 58.0274 30.9211 59.575 30.0085C59.9094 29.8168 60.2277 29.5984 60.5269 29.3554L65.2849 32.1009L65.2849 28.6963ZM54.4669 28.3422C53.5738 28.3593 52.6866 28.1936 51.8599 27.8554C51.0331 27.5171 50.2842 27.0134 49.6592 26.3753C48.397 25.0603 47.6923 23.3083 47.6923 21.4856C47.6923 19.663 48.397 17.9109 49.6592 16.596C50.942 15.3355 52.6685 14.6293 54.4669 14.6293C56.2653 14.6293 57.9918 15.3355 59.2747 16.596C59.9183 17.234 60.4247 17.9969 60.7629 18.8377C61.1011 19.6785 61.2639 20.5796 61.2413 21.4856C61.2594 22.964 60.7979 24.4083 59.926 25.6023L54.4669 22.4504V25.8578L57.5195 27.62C57.405 27.6806 57.3351 27.7138 57.3351 27.7138C56.4356 28.1277 55.4571 28.3421 54.4669 28.3422Z" fill="#3D406D"/>
<defs>
<linearGradient id="paint0_linear" x1="28.456" y1="12.5039" x2="28.456" y2="27.0353" gradientUnits="userSpaceOnUse">
<stop offset="0.25" stop-color="#7366FF"/>
<stop offset="1" stop-color="#5219FF"/>
</linearGradient>
<linearGradient id="paint1_linear" x1="15.8717" y1="31.5254" x2="31.4266" y2="31.5254" gradientUnits="userSpaceOnUse">
<stop stop-color="#7366FF"/>
<stop offset="1" stop-color="#A299FF"/>
</linearGradient>
</defs>
</svg>
